<svg width="150" height="19" viewBox="0 0 150 19" fill="none" xmlns="http://www.w3.org/2000/svg">
<path fill-rule="evenodd" clip-rule="evenodd" d="M93.81 3.63995C89.2517 5.59367 87.7732 9.66322 88.8445 12.1527C89.9134 14.6366 93.8924 16.3766 98.4851 14.4179C103.055 12.4689 104.524 8.40325 103.447 5.8963C102.38 3.41241 98.3924 1.68034 93.8114 3.63934L93.8108 3.63959L93.81 3.63995ZM92.6988 1.05719C87.2466 3.3932 84.3621 8.86323 86.2545 13.2609C88.147 17.6586 94.1161 19.3379 99.5934 17.0019C105.071 14.6659 107.93 9.19581 106.038 4.78981C104.145 0.383812 98.1594 -1.27882 92.6988 1.05719Z" fill="#131E23"/>
<path d="M0 12.4437H2.93623C3.05857 13.0293 3.30326 13.5417 3.64582 13.9809C4.23306 14.7372 5.28521 15.4936 7.21823 15.4936C9.93424 15.4936 11.0109 14.3956 11.0109 12.9317C11.0109 11.5897 9.56721 10.9553 7.75654 10.4673C4.7469 9.68656 0.734057 8.88138 0.734057 5.12387C0.734057 2.46434 3.18092 0 7.09589 0C10.0811 0 11.7939 1.26877 12.6992 2.51314C13.2375 3.24512 13.6045 4.0747 13.8247 5.00188H10.8885C10.7662 4.53829 10.5704 4.1479 10.2768 3.78191C9.76296 3.17192 8.83316 2.56194 7.09589 2.56194C4.77137 2.56194 3.67029 3.65991 3.67029 5.00188C3.67029 6.31944 5.11393 7.00263 6.92461 7.49062C9.93424 8.36899 13.9471 9.10098 13.9471 12.8097C13.9471 15.6156 11.5002 18.0556 7.21823 18.0556C3.98838 18.0556 2.15323 16.6648 1.17449 15.2496C0.587246 14.4444 0.195749 13.4929 0 12.4437Z" fill="#131E23"/>
<path d="M16.6272 17.5676V0.487987H24.0901C28.1274 0.487987 30.6966 3.04992 30.6966 6.22185C30.6966 9.39377 28.1274 11.9557 24.0901 11.9557H19.441V17.5676H16.6272ZM19.441 9.27177H24.0901C26.5369 9.27177 27.7604 8.0762 27.7604 6.22185C27.7604 4.36749 26.5369 3.17192 24.0901 3.17192H19.441V9.27177Z" fill="#131E23"/>
<path d="M32.7864 17.5676V0.487987H45.143V3.17192H35.6003V7.56381H43.3079V10.2477H35.6003V14.8836H45.143V17.5676H32.7864Z" fill="#131E23"/>
<path d="M46.6345 9.02778C46.6345 3.78191 50.6473 0 55.8102 0C59.3336 0 61.5113 1.56156 62.7592 3.12312C63.4933 4.0259 64.0316 5.07507 64.3742 6.22185H61.5603C61.2667 5.56306 60.8507 4.97748 60.3369 4.46509C59.456 3.58671 58.0368 2.68393 55.8102 2.68393C52.1399 2.68393 49.5707 5.24587 49.5707 9.02778C49.5707 12.8097 52.1399 15.3716 55.8102 15.3716C58.0613 15.3716 59.5294 14.3956 60.4347 13.4197C60.973 12.8585 61.389 12.1997 61.6826 11.4677H64.4965C64.0805 12.7121 63.4933 13.8101 62.7103 14.7616C61.4135 16.4452 59.2113 18.0556 55.8102 18.0556C50.6473 18.0556 46.6345 14.2736 46.6345 9.02778Z" fill="#131E23"/>
<path d="M67.4397 17.5676V0.487987H70.2536V17.5676H67.4397Z" fill="#131E23"/>
<path d="M73.7644 17.5676V0.487987H85.754V3.17192H76.5783V8.0518H83.7965V10.7357H76.5783V17.5676H73.7644Z" fill="#131E23"/>
<path d="M108.432 17.5676V0.487987H115.895C120.055 0.487987 122.501 2.92793 122.501 5.97785C122.501 8.41779 120.911 10.5161 118.097 11.2237L122.379 17.5676H119.076L115.038 11.4677H111.246V17.5676H108.432ZM111.246 8.78378H115.895C118.464 8.78378 119.565 7.71021 119.565 5.97785C119.565 4.2455 118.464 3.17192 115.895 3.17192H111.246V8.78378Z" fill="#131E23"/>
<path d="M131.413 5.22681C132.802 4.62028 133.536 3.20002 133.054 2.05819C132.572 0.916359 131.052 0.480348 129.658 1.08688C128.263 1.69341 127.535 3.11367 128.017 4.25765C128.498 5.40164 130.023 5.83334 131.413 5.22681Z" fill="#131E23"/>
<path d="M137.042 11.1764C138.454 10.5698 139.201 9.14958 138.711 8.00775C138.221 6.86592 136.675 6.42991 135.257 7.03644C133.839 7.64297 133.098 9.06323 133.588 10.2072C134.078 11.3512 135.628 11.7829 137.042 11.1764Z" fill="#131E23"/>
<path d="M131.473 17.0546C132.885 16.4481 133.632 15.0278 133.142 13.886C132.652 12.7441 131.106 12.3081 129.688 12.9147C128.269 13.5212 127.529 14.9414 128.019 16.0854C128.509 17.2294 130.059 17.6611 131.473 17.0546Z" fill="#131E23"/>
<path d="M142.552 5.22681C143.94 4.62028 144.675 3.20002 144.193 2.05819C143.711 0.916359 142.191 0.480348 140.796 1.08688C139.401 1.69341 138.673 3.11367 139.155 4.25765C139.637 5.40164 141.161 5.83334 142.552 5.22681Z" fill="#131E23"/>
<path d="M148.181 11.1764C149.593 10.5698 150.34 9.14958 149.85 8.00775C149.36 6.86592 147.814 6.42991 146.395 7.03644C144.977 7.64297 144.236 9.06323 144.726 10.2072C145.217 11.3512 146.767 11.7829 148.181 11.1764Z" fill="#131E23"/>
<path d="M142.612 17.0546C144.024 16.4481 144.77 15.0278 144.28 13.886C143.79 12.7441 142.245 12.3081 140.826 12.9147C139.408 13.5212 138.667 14.9414 139.157 16.0854C139.647 17.2294 141.197 17.6611 142.612 17.0546Z" fill="#131E23"/>
</svg>
